<?xml version="1.0" encoding="utf-8"?>
<!-- Generator: Adobe Illustrator 27.1.1, SVG Export Plug-In . SVG Version: 6.00 Build 0)  -->
<svg version="1.1" id="Calque_1" xmlns="http://www.w3.org/2000/svg" xmlns:xlink="http://www.w3.org/1999/xlink" x="0px" y="0px"
	 viewBox="0 0 1793.4 495.4" style="enable-background:new 0 0 1793.4 495.4;" xml:space="preserve">
<style type="text/css">
	.st0{fill:#FFFFFF;}
</style>
<image style="display:none;overflow:visible;enable-background:new    ;" width="2000" height="1414" xlink:href="PAGE D&apos;ACCUEIL/logo.png"  transform="matrix(0.595 0 0 0.595 356.578 -550.4587)">
</image>
<image style="display:none;overflow:visible;enable-background:new    ;" width="2000" height="1414" xlink:href="logo-dark.png"  transform="matrix(1 0 0 1 -76.422 -813.4587)">
</image>
<g>
	<path class="st0" d="M13.6,20.1h12.7v153.1h88.6l-2.4,11.8H13.6V20.1z"/>
	<path class="st0" d="M295.5,140.7c4.9,21.9,19.6,34.9,46.6,34.9c30.2,0,41.7-15.1,41.7-33c0-18.6-8.2-30.2-44.5-39.1
		c-34.9-8.7-49.9-20-49.9-43.8c0-21.7,15.8-41.9,51.1-41.9c36.3,0,51.6,22.1,53.7,42.2H381c-3.8-17.7-15.3-30.4-41.2-30.4
		c-23.8,0-36.7,11.1-36.7,29.4c0,18.1,10.8,25.2,41.2,32.7c46.4,11.5,53.2,30.2,53.2,49.9c0,24.3-17.7,45.2-55.8,45.2
		c-41.2,0-56.3-24-59.4-46.2L295.5,140.7L295.5,140.7z"/>
	<path class="st0" d="M591.9,107.9v77h-13V20.1H638c32.5,0,49.7,17.4,49.7,43.3c0,21-12.5,34.6-30.9,38.6c17,4,28.3,15.1,28.3,43.1
		v6.4c0,11.5-0.9,27.1,2.1,33.4h-13c-3.1-7.1-2.4-20.3-2.4-34.4v-4.2c0-27.1-8-38.4-39.6-38.4L591.9,107.9L591.9,107.9z M591.9,96.2
		h39.8c29,0,42.4-10.8,42.4-32.5c0-20.3-13.2-31.8-38.9-31.8h-43.3V96.2z"/>
	<path class="st0" d="M946.8,109.1c0-32.3,0.2-63.1,0.9-79.6H947c-6.6,22.1-40,103.4-61,155.5h-12.4
		c-15.8-40.3-50.4-130.7-57.9-155.7h-0.5c1.2,18.8,1.6,57.2,1.6,85.5V185h-12.7V20.1h19.1c22.6,56.5,51.1,130.5,57.2,149.1h0.5
		c3.8-12,36.7-94.2,59.8-149.1h18.8V185h-12.7L946.8,109.1L946.8,109.1z"/>
	<path class="st0" d="M1057.8,103.9h-43v69.3h92.1L1105,185h-102.9V20.1h101.1v11.8h-88.3v60.3h43L1057.8,103.9L1057.8,103.9z"/>
	<path class="st0" d="M491.8,103.9h-43v69.3h92.1L539,185H436.1V20.1h101.1v11.8h-88.3v60.3h43L491.8,103.9L491.8,103.9z"/>
	<path class="st0" d="M1135.4,20.1h54.6c45.2,0,76.6,31.6,76.6,81c0,49.2-30.6,83.9-76.8,83.9h-54.4L1135.4,20.1L1135.4,20.1z
		 M1148.1,173.2h39.8c43.6,0,65-30.6,65-71.4c0-36.3-19.3-70-65-70h-39.8V173.2z"/>
	<path class="st0" d="M1315.6,20.1V185h-12.7V20.1H1315.6z"/>
	<path class="st0" d="M1487.1,140.9c-7.8,26.1-27.1,45.9-61.9,45.9c-47.3,0-72.3-37.7-72.3-84.1c0-44.5,24.5-85,72.5-85
		c35.6,0,56.5,19.8,61.9,47.3h-12.7c-7.5-21.4-21.4-35.6-49.9-35.6c-41,0-58.2,37.5-58.2,73c0,35.3,17,72.5,59.1,72.5
		c26.9,0,40.5-13.9,48.8-34.2h12.7V140.9z"/>
	<path class="st0" d="M196.9,20.1h-15.1L121.3,185h13l21.6-57.5c16.8-48.6,28.9-81.5,33.4-96h0.3c3.7,12.8,14.4,40,35.1,96.5l0,0
		l31.4,79.5H270L196.9,20.1z"/>
	<path class="st0" d="M1588.9,20.1h-15.1l-70.6,188.4h13l31.6-81c16.8-48.6,28.9-81.5,33.4-96h0.3c3.7,12.8,14.4,40,35.1,96.5l0,0
		l21.4,57h13.9L1588.9,20.1z"/>
	<path class="st0" d="M1672,20.1h12.7v153.1h88.6l-2.4,11.8H1672L1672,20.1L1672,20.1z"/>
</g>
<g>
	<path class="st0" d="M122.6,460.3h-13v-53.2l-23.1,45.6h-9.1l-23.2-45.6v53.2H41.3v-74.2h16.2l24.6,47.8l24.4-47.8h16.1V460.3z"/>
	<path class="st0" d="M164.3,460.3c-6.4,0-11.8-1.3-16.1-3.8c-4.3-2.5-7.6-6-9.8-10.2c-2.2-4.3-3.3-9-3.3-14.3
		c0-8.8,2.7-15.8,8.2-20.9s12.4-7.6,20.6-7.6c6.4,0,11.7,1.2,15.7,3.5s6.9,5.7,8.8,10s2.8,9.4,2.8,15.1l-0.1,4.1h-41.9
		c1.2,4.5,3.3,7.8,6.3,9.8c2.9,2.1,6.3,3.1,10,3.1c5.8,0,10.9-2.1,15.3-6.4l7.4,7.7C182.2,457.1,174.2,460.3,164.3,460.3z
		 M178.6,427c-0.2-3.8-1.6-6.9-4-9.3s-5.9-3.5-10.5-3.5c-4.5,0-8,1.2-10.6,3.6c-2.5,2.4-4,5.5-4.6,9.3L178.6,427L178.6,427z
		 M167.1,396.5l-10.7-1.1l11-15.3l13.3,5.4L167.1,396.5z"/>
	<path class="st0" d="M224.9,460.3c-8.5,0-15.1-2.7-19.9-8.1s-7.2-12.2-7.2-20.5c0-6.1,1.2-11.3,3.6-15.5s5.6-7.3,9.6-9.5
		s8.5-3.2,13.5-3.2c8.7,0,15.2,3.3,19.4,9.9v-31.8h13.8v78.7h-13.8v-9.5C239.8,457.1,233.4,460.3,224.9,460.3z M227.9,448.8
		c5.3,0,9.3-1.6,12-4.9s4.1-7.2,4.1-11.8c0-4.7-1.4-8.7-4.2-11.8c-2.8-3.3-6.7-4.9-11.9-4.9c-5.2,0-9.1,1.6-11.8,4.7
		c-2.7,3.1-4.1,7.1-4.3,12.1c0.2,4.9,1.7,9,4.3,12.1C218.8,447.2,222.7,448.8,227.9,448.8z"/>
	<path class="st0" d="M299.5,460.3c-6.4,0-11.8-1.3-16.1-3.8c-4.3-2.5-7.6-6-9.8-10.2c-2.2-4.3-3.3-9-3.3-14.3
		c0-8.8,2.7-15.8,8.2-20.9s12.4-7.6,20.6-7.6c6.4,0,11.7,1.2,15.7,3.5s6.9,5.7,8.8,10s2.8,9.4,2.8,15.1l-0.1,4.1h-41.9
		c1.2,4.5,3.3,7.8,6.3,9.8c2.9,2.1,6.3,3.1,10,3.1c5.8,0,10.9-2.1,15.3-6.4l7.4,7.7C317.4,457.1,309.4,460.3,299.5,460.3z
		 M313.8,427c-0.2-3.8-1.6-6.9-4-9.3s-5.9-3.5-10.5-3.5c-4.5,0-8,1.2-10.6,3.6c-2.5,2.4-4,5.5-4.6,9.3L313.8,427L313.8,427z"/>
	<path class="st0" d="M361.7,460.3c-5.1,0-9.8-1-14.2-3.1c-4.4-2.1-7.9-5.3-10.7-9.8c-2.5-4.2-3.8-9.4-3.8-15.4
		c0-6.2,1.3-11.4,3.9-15.6s6.1-7.5,10.4-9.6c4.4-2.2,9.2-3.3,14.6-3.3c10.4,0,18.3,3.5,23.8,10.4l-8.4,8c-3.6-4.2-8.6-6.3-14.8-6.3
		c-4.2,0-7.8,1.4-10.9,4.2c-3.1,2.8-4.6,6.8-4.6,12.1c0,5.4,1.5,9.5,4.6,12.3c3,2.8,6.7,4.2,10.9,4.2c6.6,0,11.7-2.2,15.3-6.5
		l8.6,6.9C381.2,456.5,373,460.3,361.7,460.3z"/>
	<path class="st0" d="M405,395.6c-1.3,0-2.6-0.3-3.8-0.9c-1.2-0.6-2.1-1.5-2.9-2.7c-0.7-1.2-1.1-2.7-1.1-4.5c0-1.9,0.4-3.5,1.1-4.7
		s1.7-2.1,2.9-2.7c1.2-0.6,2.4-0.9,3.8-0.9s2.7,0.3,3.9,0.8c1.2,0.6,2.2,1.5,2.9,2.7s1.1,2.8,1.1,4.7c0,1.4-0.3,2.7-0.9,4
		c-0.6,1.2-1.5,2.2-2.6,3C408.2,395.2,406.7,395.6,405,395.6z M411.9,460.3h-13.8v-56.7h13.8V460.3z"/>
	<path class="st0" d="M484.1,460.3h-13.9v-31c0-3.6-1-6.7-3.1-9.1s-5.2-3.6-9.5-3.6c-5.1,0.6-8.8,2.3-11.2,5.4
		c-2.4,3-3.6,6.6-3.6,10.8v27.6H429v-56.7h13.8v11c4.2-7.4,11-11.1,20.4-11.1c7.1,0,12.3,2.1,15.8,6.2s5.2,9.3,5.2,15.5v35H484.1z"
		/>
	<path class="st0" d="M523.5,460.3c-6.4,0-11.8-1.3-16.1-3.8s-7.6-6-9.8-10.2c-2.2-4.3-3.3-9-3.3-14.3c0-8.8,2.7-15.8,8.2-20.9
		s12.4-7.6,20.6-7.6c6.4,0,11.7,1.2,15.7,3.5s6.9,5.7,8.8,10c1.9,4.3,2.8,9.4,2.8,15.1l-0.1,4.1h-41.9c1.2,4.5,3.3,7.8,6.3,9.8
		c2.9,2.1,6.3,3.1,10,3.1c5.8,0,10.9-2.1,15.3-6.4l7.4,7.7C541.5,457.1,533.5,460.3,523.5,460.3z M537.9,427c-0.2-3.8-1.6-6.9-4-9.3
		s-5.9-3.5-10.5-3.5c-4.5,0-8,1.2-10.6,3.6c-2.5,2.4-4,5.5-4.6,9.3L537.9,427L537.9,427z"/>
	<path class="st0" d="M618.1,460.3c-6.4,0-11.8-1.3-16.1-3.8s-7.6-6-9.8-10.2c-2.2-4.3-3.3-9-3.3-14.3c0-8.8,2.7-15.8,8.2-20.9
		s12.4-7.6,20.6-7.6c6.4,0,11.7,1.2,15.7,3.5s6.9,5.7,8.8,10c1.9,4.3,2.8,9.4,2.8,15.1l-0.1,4.1H603c1.2,4.5,3.3,7.8,6.3,9.8
		c2.9,2.1,6.3,3.1,10,3.1c5.8,0,10.9-2.1,15.3-6.4l7.4,7.7C636,457.1,628.1,460.3,618.1,460.3z M632.4,427c-0.2-3.8-1.6-6.9-4-9.3
		s-5.9-3.5-10.5-3.5c-4.5,0-8,1.2-10.6,3.6c-2.5,2.4-4,5.5-4.6,9.3L632.4,427L632.4,427z"/>
	<path class="st0" d="M673.9,460.3c-9.2,0-17-2.7-23.4-8l4.8-9.4c6.2,4.5,12.5,6.8,19.2,6.8c5.6,0,8.4-1.7,8.4-5.2
		c0-1.8-0.9-3.2-2.7-4.4c-1.8-1.2-4.6-2.2-8.6-3.2c-4.4-1-8.5-2.7-12.3-5c-3.7-2.4-5.7-6.4-5.9-11.8c0-3.8,1-6.9,2.9-9.4
		s4.5-4.3,7.7-5.5s6.8-1.8,10.8-1.8c7.4,0,14.4,2,20.8,6l-5,9.9c-6.2-3.4-11.8-5.1-16.6-5.1c-5.1,0-7.6,1.6-7.6,4.9
		c0,1.6,0.9,2.8,2.6,3.8c1.7,1,4,1.8,6.9,2.6c2.7,0.7,5.5,1.6,8.5,2.7s5.5,2.6,7.6,4.4c1.2,1.1,2.2,2.6,3.1,4.4
		c0.9,1.8,1.3,3.9,1.3,6.4c0,3.8-1,6.9-3.1,9.4s-4.8,4.3-8.2,5.5C681.6,459.7,677.9,460.3,673.9,460.3z"/>
	<path class="st0" d="M727,460.3c-4.5,0-8.4-1.4-11.7-4.1c-3.3-2.8-4.9-7-4.9-12.8v-28h-8l-0.1-10.1h8.1v-15.6h13.7v15.6h16.2v10.1
		h-16.2V441c0,4.8,2,7.2,5.9,7.2c2.3,0,5-0.8,8.1-2.3l3.2,10.4C736.8,459,732,460.3,727,460.3z"/>
	<path class="st0" d="M807.8,460.3h-13.9v-31c0-3.6-1-6.7-3.1-9.1s-5.2-3.6-9.5-3.6c-5.2,0.6-8.9,2.3-11.3,5.4
		c-2.4,3-3.6,6.6-3.6,10.8v27.6h-13.8v-78.7h13.8v33.2c4.2-7.6,10.9-11.3,20.3-11.3c4.9,0,8.9,1,12,2.9c3.3,2.1,5.6,4.8,7.1,8
		c1.4,3.3,2.2,6.9,2.2,10.7v35.1H807.8z"/>
	<path class="st0" d="M847.3,460.3c-6.4,0-11.8-1.3-16.1-3.8s-7.6-6-9.8-10.2c-2.2-4.3-3.3-9-3.3-14.3c0-8.8,2.7-15.8,8.2-20.9
		s12.4-7.6,20.6-7.6c6.4,0,11.7,1.2,15.7,3.5s6.9,5.7,8.8,10c1.9,4.3,2.8,9.4,2.8,15.1l-0.1,4.1h-41.9c1.2,4.5,3.3,7.8,6.3,9.8
		c2.9,2.1,6.3,3.1,10,3.1c5.8,0,10.9-2.1,15.3-6.4l7.4,7.7C865.2,457.1,857.2,460.3,847.3,460.3z M861.6,427c-0.2-3.8-1.6-6.9-4-9.3
		s-5.9-3.5-10.5-3.5c-4.5,0-8,1.2-10.6,3.6c-2.5,2.4-4,5.5-4.6,9.3L861.6,427L861.6,427z M850.1,396.5l-10.7-1.1l11-15.3l13.3,5.4
		L850.1,396.5z"/>
	<path class="st0" d="M905.1,460.3c-4.5,0-8.4-1.4-11.7-4.1c-3.3-2.8-4.9-7-4.9-12.8v-28h-8l-0.1-10.1h8.1v-15.6h13.7v15.6h16.2
		v10.1h-16.2V441c0,4.8,2,7.2,5.9,7.2c2.3,0,5-0.8,8.1-2.3l3.2,10.4C914.8,459,910.1,460.3,905.1,460.3z"/>
	<path class="st0" d="M937,395.6c-1.3,0-2.6-0.3-3.8-0.9c-1.2-0.6-2.1-1.5-2.9-2.7c-0.7-1.2-1.1-2.7-1.1-4.5c0-1.9,0.4-3.5,1.1-4.7
		s1.7-2.1,2.9-2.7c1.2-0.6,2.4-0.9,3.8-0.9s2.7,0.3,3.9,0.8c1.2,0.6,2.2,1.5,2.9,2.7s1.1,2.8,1.1,4.7c0,1.4-0.3,2.7-0.9,4
		c-0.6,1.2-1.5,2.2-2.6,3C940.2,395.2,938.7,395.6,937,395.6z M943.9,460.3h-13.8v-56.7h13.8V460.3z"/>
	<path class="st0" d="M1015.7,480.9h-13.8v-30.3c-4.2,6.5-10.6,9.8-19.1,9.8s-15.1-2.7-19.9-8.1s-7.2-12.2-7.2-20.5
		c0-6.1,1.2-11.3,3.6-15.5s5.6-7.3,9.6-9.5s8.5-3.2,13.5-3.2c8.7,0,15.2,3.3,19.4,9.8v-9.7h13.8L1015.7,480.9L1015.7,480.9z
		 M985.8,448.8c5.3,0,9.3-1.6,12-4.9s4.1-7.2,4.1-11.8c0-4.7-1.4-8.7-4.2-11.8c-2.8-3.3-6.7-4.9-11.9-4.9c-5.2,0-9.1,1.6-11.8,4.7
		c-2.7,3.1-4.1,7.1-4.3,12.1c0.2,4.9,1.7,9,4.3,12.1C976.7,447.2,980.6,448.8,985.8,448.8z"/>
	<path class="st0" d="M1052.1,460.3c-6.9,0-12.1-2.1-15.5-6.2s-5.1-9.2-5.1-15.4v-35.2h13.9v31.2c0,3.6,1,6.6,3,9s5.1,3.6,9.2,3.6
		c4.9-0.6,8.6-2.3,10.8-5.3c2.3-3,3.4-6.6,3.4-10.8v-27.7h13.9v56.7h-13.9v-10.7C1067.9,456.7,1061.3,460.3,1052.1,460.3z"/>
	<path class="st0" d="M1126.9,460.3c-6.4,0-11.8-1.3-16.1-3.8c-4.3-2.5-7.6-6-9.8-10.2c-2.2-4.3-3.3-9-3.3-14.3
		c0-8.8,2.7-15.8,8.2-20.9s12.4-7.6,20.6-7.6c6.4,0,11.7,1.2,15.7,3.5s6.9,5.7,8.8,10s2.8,9.4,2.8,15.1l-0.1,4.1h-41.9
		c1.2,4.5,3.3,7.8,6.3,9.8c2.9,2.1,6.3,3.1,10,3.1c5.8,0,10.9-2.1,15.3-6.4l7.4,7.7C1144.8,457.1,1136.9,460.3,1126.9,460.3z
		 M1141.2,427c-0.2-3.8-1.6-6.9-4-9.3s-5.9-3.5-10.5-3.5c-4.5,0-8,1.2-10.6,3.6c-2.5,2.4-4,5.5-4.6,9.3L1141.2,427L1141.2,427z"/>
	<path class="st0" d="M1252,462.1l-11.2-11.1c-6.6,6.2-14,9.3-22.1,9.3c-2.9,0-5.8-0.4-8.6-1.2s-5.4-2.1-7.7-3.7s-4.1-3.8-5.5-6.4
		s-2.1-5.7-2.1-9.2c0-8.4,5.2-15,15.7-19.9c-4.5-6-6.8-11.6-6.8-16.9c0-4.8,1.7-8.9,5.1-12.1s8.3-4.9,14.7-4.9
		c5.4,0,10,1.4,13.8,4.2c3.7,2.8,5.6,6.7,5.6,11.7c0,7.9-5.9,14.5-17.8,20c4.1,4.4,8.9,9.2,14.4,14.5c2.3-3.4,4.4-7.6,6.2-12.5
		l9,6.5c-2,5-4.5,9.5-7.4,13.4l11.8,11.2L1252,462.1z M1219.3,449.9c5,0,9.7-2,14.1-6.1c-6.7-6.3-12.4-12.1-17.2-17.4
		c-6.6,3.3-9.9,7.3-9.9,12c0,3.6,1.3,6.4,3.9,8.4C1212.8,449,1215.8,449.9,1219.3,449.9z M1219.7,415.1c8.2-3.7,12.3-8.1,12.3-13.3
		c0-4.7-2.8-7.1-8.3-7.1c-3,0-5.3,0.8-6.8,2.3c-1.5,1.6-2.2,3.5-2.2,5.8C1214.7,406.4,1216.4,410.5,1219.7,415.1z"/>
	<path class="st0" d="M1371,460.3h-15.3l-6.6-15.7h-36.3l-6.6,15.7h-14.6l32.6-74.2h14.7L1371,460.3z M1344.1,432.4l-12.9-31.2
		l-13.1,31.2H1344.1z"/>
	<path class="st0" d="M1434.6,460.3h-13.9v-31c0-3.6-1-6.7-3.1-9.1s-5.2-3.6-9.5-3.6c-5.1,0.6-8.8,2.3-11.2,5.4
		c-2.4,3-3.6,6.6-3.6,10.8v27.6h-13.8v-56.7h13.8v11c4.2-7.4,11-11.1,20.4-11.1c7.1,0,12.3,2.1,15.8,6.2s5.2,9.3,5.2,15.5v35H1434.6
		z"/>
	<path class="st0" d="M1469.1,460.3c-4.5,0-8.4-1.4-11.7-4.1c-3.3-2.8-4.9-7-4.9-12.8v-28h-8l-0.1-10.1h8.1v-15.6h13.7v15.6h16.2
		v10.1h-16.2V441c0,4.8,2,7.2,5.9,7.2c2.3,0,5-0.8,8.1-2.3l3.2,10.4C1478.9,459,1474.1,460.3,1469.1,460.3z"/>
	<path class="st0" d="M1501,395.6c-1.3,0-2.6-0.3-3.8-0.9c-1.2-0.6-2.1-1.5-2.9-2.7c-0.7-1.2-1.1-2.7-1.1-4.5c0-1.9,0.4-3.5,1.1-4.7
		s1.7-2.1,2.9-2.7c1.2-0.6,2.4-0.9,3.8-0.9s2.7,0.3,3.9,0.8c1.2,0.6,2.2,1.5,2.9,2.7c0.7,1.2,1.1,2.8,1.1,4.7c0,1.4-0.3,2.7-0.9,4
		c-0.6,1.2-1.5,2.2-2.6,3C1504.2,395.2,1502.7,395.6,1501,395.6z M1507.9,460.3h-13.8v-56.7h13.8V460.3z"/>
	<path class="st0" d="M1549.3,432.7h-26.7v-9.5h26.6L1549.3,432.7L1549.3,432.7z"/>
	<path class="st0" d="M1579.4,460.3c-4.6,0-8.3-0.8-11.2-2.5c-3-1.8-5.2-4-6.6-6.7s-2.1-5.6-2.1-8.5c0-4.8,1.7-8.7,5.1-11.9
		c3.4-3.2,8.9-4.8,16.4-4.8h16.5c0-4-1.1-6.8-3.2-8.6c-2.1-1.7-5.3-2.6-9.6-2.6c-5.2,0-10.9,1.6-16.9,4.9l-5-9.1
		c7.8-4.7,16.2-7,24.9-7c5.5,0,9.9,0.8,13.4,2.5c3.4,1.7,6,4,7.6,7.1c1.6,3,2.4,6.5,2.4,10.4l0.1,36.8h-13.6v-7.2
		C1593.6,457.9,1587.4,460.3,1579.4,460.3z M1604.8,394.7h-12.3l-5.8-6.7l-5.8,6.7h-12.3l11.5-15.3h13.4L1604.8,394.7z
		 M1582.7,449.7c3.5,0,6.6-0.8,9.4-2.3c2.8-1.6,4.6-4,5.6-7.4v-5.1h-14.3c-7.1,0-10.7,2.3-10.7,6.8c0,1.9,0.5,3.5,1.4,4.7
		s2.1,2,3.7,2.6C1579.1,449.5,1580.8,449.7,1582.7,449.7z"/>
	<path class="st0" d="M1648.9,480.9c-8.6,0-16.6-2.5-24-7.5l5.5-10c5,4,10.9,5.9,17.7,5.9c4.7,0,8.6-1.2,11.8-3.6s4.8-6.1,4.8-11
		V448c-4,5.9-10,8.9-18,8.9c-5.5,0-10.1-1.2-13.9-3.6c-3.7-2.4-6.6-5.6-8.5-9.7s-2.9-8.6-2.9-13.6c0-7.7,2.3-14.1,6.8-19
		c4.5-5,10.5-7.5,18-7.5c8.3,0,14.4,3,18.5,8.9v-8.9h13.8v51c0,5.9-1.3,10.8-3.9,14.7c-2.8,4.1-6.5,7-11,8.9
		C1659.2,480,1654.2,480.9,1648.9,480.9z M1649.8,446.1c5,0,8.8-1.6,11.3-4.8c2.5-3.2,3.8-6.9,3.8-11.1c0-5-1.5-8.9-4.3-11.7
		c-2.9-2.8-6.5-4.1-10.7-4.1c-4.9,0-8.7,1.5-11.2,4.4c-2.5,3-3.8,6.8-4,11.4c0.1,4.6,1.5,8.4,4,11.4
		C1641.1,444.6,1644.8,446.1,1649.8,446.1z"/>
	<path class="st0" d="M1718.8,460.3c-6.4,0-11.8-1.3-16.1-3.8c-4.3-2.5-7.6-6-9.8-10.2c-2.2-4.3-3.3-9-3.3-14.3
		c0-8.8,2.7-15.8,8.2-20.9s12.4-7.6,20.6-7.6c6.4,0,11.7,1.2,15.7,3.5s6.9,5.7,8.8,10s2.8,9.4,2.8,15.1l-0.1,4.1h-41.9
		c1.2,4.5,3.3,7.8,6.3,9.8c2.9,2.1,6.3,3.1,10,3.1c5.8,0,10.9-2.1,15.3-6.4l7.4,7.7C1736.7,457.1,1728.8,460.3,1718.8,460.3z
		 M1733.1,427c-0.2-3.8-1.6-6.9-4-9.3s-5.9-3.5-10.5-3.5c-4.5,0-8,1.2-10.6,3.6c-2.5,2.4-4,5.5-4.6,9.3L1733.1,427L1733.1,427z"/>
</g>
<rect x="9" y="274.5" class="st0" width="1769" height="7"/>
</svg>
